<svg version="1.2" xmlns="http://www.w3.org/2000/svg" viewBox="0 0 121 23" width="121" height="23">
	<title>logo</title>
	<defs>
		<linearGradient id="g1" x2="1" gradientUnits="userSpaceOnUse" gradientTransform="matrix(-2.654,-23,24.869,-2.87,14.154,23)">
			<stop offset="0" stop-color="#2b3eed"/>
			<stop offset="1" stop-color="#6573f4"/>
		</linearGradient>
		<linearGradient id="g2" x2="1" gradientUnits="userSpaceOnUse" gradientTransform="matrix(-2.654,-23,29.446,-3.398,25.154,23)">
			<stop offset="0" stop-color="#2b3eed"/>
			<stop offset="1" stop-color="#6573f4"/>
		</linearGradient>
		<linearGradient id="g3" x2="1" gradientUnits="userSpaceOnUse" gradientTransform="matrix(-2.654,-23,27.245,-3.144,25.154,23)">
			<stop offset="0" stop-color="#2b3eed"/>
			<stop offset="1" stop-color="#6573f4"/>
		</linearGradient>
	</defs>
	<style>
		.s0 { fill: #000000 } 
		.s1 { fill: url(#g1) } 
		.s2 { fill: url(#g2) } 
		.s3 { fill: url(#g3) } 
	</style>
	<path id="Citron" fill-rule="evenodd" class="s0" d="m45 11.5c0-5.3 3.1-8.8 8.5-8.8 4.7 0 7.9 2.8 7.9 6.5h-3.1c-0.3-2.2-1.8-3.9-4.8-3.9-3.4 0-5.2 2.2-5.2 6.2 0 3.9 1.8 6.1 5.2 6.1 2.9 0 4.5-1.6 4.8-4h3.1c0 3.8-3.1 6.6-7.9 6.6-5.4 0-8.5-3.5-8.5-8.7zm18.2 8.5v-12.4h3.1v12.4zm-0.3-15.8c0-1 0.7-1.6 1.8-1.6 1.2 0 1.8 0.6 1.8 1.6 0 0.9-0.6 1.6-1.8 1.6-1.1 0-1.8-0.7-1.8-1.6zm6.7 12.3v-6.7h-2v-2.2h2v-3.7h3.1v3.7h2.7v2.2h-2.7v6.8c0 1 0.4 1.3 1.4 1.3h1.3v2.1c-0.5 0-1.5 0.1-2.1 0.1-2.8 0-3.7-0.8-3.7-3.6zm7.5 3.5v-12.4h3v2.8c0.6-2.2 1.7-3 3.4-3 0.4 0 0.9 0.1 1.1 0.2v2.7h-1.2c-1.9 0-3.2 1.4-3.2 3.9v5.8zm8.2-6.2c0-3.9 2.3-6.4 6.3-6.4 4.1 0 6.3 2.5 6.3 6.4 0 3.9-2.2 6.4-6.3 6.4-4 0-6.3-2.5-6.3-6.4zm9.5 0c0-2.7-1.1-4.1-3.2-4.1-2 0-3.2 1.4-3.2 4.1 0 2.7 1.2 4.1 3.2 4.1 2.1 0 3.2-1.4 3.2-4.1zm12.8 6.2v-7.6c0-1.7-0.6-2.5-2.1-2.5-1.6 0-2.7 1.2-2.7 3.2v6.9h-3.1v-12.4h3v2c0.6-1.3 1.7-2.2 3.8-2.2 2.8 0 4.2 1.4 4.2 4.4v8.2z"/>
	<path class="s1" d="m16.8 19.8c0.5 0.8 1.5 1 2.2 0.4 1.5-1.3 2.6-2.9 3.3-4.7 0.9-2.4 0.9-4.9 0.2-7.3-0.7-2.4-2.2-4.5-4.2-6-2-1.5-4.5-2.2-7-2.2-2.5 0-4.9 0.9-6.9 2.4-2 1.6-3.4 3.7-4 6.2-0.7 2.4-0.5 4.9 0.5 7.3 0.7 1.7 1.9 3.3 3.4 4.5 0.7 0.6 1.7 0.3 2.2-0.5 0.5-0.8 0.2-1.8-0.5-2.4-0.9-0.8-1.6-1.8-2-2.9-0.7-1.7-0.8-3.5-0.4-5.2 0.5-1.7 1.5-3.2 2.9-4.3 1.4-1.1 3.1-1.7 4.9-1.7 1.7-0.1 3.5 0.5 4.9 1.5 1.4 1.1 2.5 2.6 3 4.3 0.5 1.6 0.4 3.5-0.2 5.1-0.4 1.1-1.1 2.2-1.9 3-0.7 0.6-0.9 1.7-0.4 2.5z"/>
	<path class="s2" d="m14.2 6.3c-0.8-0.5-1.8-0.3-2.2 0.6q-0.8 1.8-1 3.8c-0.1 1.9 0.2 3.8 1 5.5 0.8 1.7 2 3.2 3.5 4.4 1.4 1.1 3.2 1.9 5.1 2.2 1.8 0.4 3.7 0.2 5.5-0.4 1.8-0.6 3.5-1.6 4.8-3 1.3-1.4 2.2-3 2.7-4.9q0.5-1.9 0.4-3.9c-0.1-0.9-1-1.5-1.9-1.3-0.9 0.2-1.5 1.1-1.5 2.1q0 1.1-0.3 2.2c-0.3 1.3-1 2.5-1.9 3.5-0.9 1-2.1 1.7-3.3 2.1-1.3 0.4-2.6 0.5-4 0.3-1.3-0.2-2.5-0.8-3.6-1.6-1-0.8-1.9-1.9-2.4-3.1-0.6-1.2-0.8-2.5-0.7-3.9q0.1-1.1 0.5-2.2c0.3-0.9 0.1-1.9-0.7-2.4z"/>
	<path class="s3" d="m30.9 6.4c0.8-0.5 1-1.5 0.4-2.3q-1.3-1.5-3-2.5-1.8-1-3.7-1.4c-0.9-0.2-1.7 0.6-1.8 1.5 0 0.9 0.7 1.7 1.6 1.9q1.2 0.3 2.2 0.9 1 0.6 1.8 1.4c0.7 0.7 1.7 1 2.5 0.5z"/>
</svg>