<svg version="1.2" xmlns="http://www.w3.org/2000/svg" viewBox="0 0 118 23" width="118" height="23">
	<title>Citron logo</title>
	<defs>
		<linearGradient id="g1" x2="1" gradientUnits="userSpaceOnUse" gradientTransform="matrix(-2.654,-23,24.915,-2.875,14.154,23)">
			<stop offset="0" stop-color="#2b3eed"/>
			<stop offset="1" stop-color="#6573f4"/>
		</linearGradient>
		<linearGradient id="g2" x2="1" gradientUnits="userSpaceOnUse" gradientTransform="matrix(-2.654,-23,29.363,-3.388,25.154,23)">
			<stop offset="0" stop-color="#2b3eed"/>
			<stop offset="1" stop-color="#6573f4"/>
		</linearGradient>
		<linearGradient id="g3" x2="1" gradientUnits="userSpaceOnUse" gradientTransform="matrix(-2.654,-23,27.251,-3.144,25.154,23)">
			<stop offset="0" stop-color="#2b3eed"/>
			<stop offset="1" stop-color="#6573f4"/>
		</linearGradient>
	</defs>
	<style>
		.s0 { fill: #ffffff } 
		.s1 { fill: url(#g1) } 
		.s2 { fill: url(#g2) } 
		.s3 { fill: url(#g3) } 
	</style>
	<path id="C" class="s0" d="m43.3 19.2c4.2 0 6.8-2.5 6.8-5.7h-2.2c-0.3 2.3-1.8 3.8-4.6 3.8-3.2 0-4.9-2.1-4.9-5.8 0-3.7 1.7-5.8 4.9-5.8 2.8 0 4.3 1.6 4.6 3.7h2.2c0-3.1-2.7-5.6-6.8-5.6-4.7 0-7.2 3.2-7.2 7.7 0 4.6 2.5 7.7 7.2 7.7z"/>
	<path id="I" fill-rule="evenodd" class="s0" d="m56.3 4v15h-2.4v-15z"/>
	<path id="T" class="s0" d="m67.7 19v-13h4.7v-2h-11.6v2h4.6v13z"/>
	<path id="R" fill-rule="evenodd" class="s0" d="m84.4 12c1.6 0.3 2.5 1.5 2.5 3.1v2.4c0 0.6 0.1 1.1 0.2 1.5h-2.2c-0.2-0.4-0.3-0.9-0.3-1.5v-2.3c0-1.9-1.2-2.4-2.8-2.4h-4v6.2h-2.3v-15h6.8c3.1 0 4.8 1.7 4.8 4.3 0 1.9-0.9 3.2-2.7 3.7zm-2.3-6.2h-4.3v5.2h4.3c1.9 0 2.7-1 2.7-2.6 0-1.5-0.8-2.6-2.7-2.6z"/>
	<path id="O" fill-rule="evenodd" class="s0" d="m88.9 11.5c0-4.5 2.6-7.7 7.3-7.7 4.7 0 7.3 3.2 7.3 7.7 0 4.6-2.6 7.7-7.3 7.7-4.7 0-7.3-3.1-7.3-7.7zm12.2 0c0-3.7-1.7-5.8-4.9-5.8-3.3 0-5 2.1-5 5.8 0 3.7 1.7 5.8 5 5.8 3.2 0 4.9-2.1 4.9-5.8z"/>
	<path id="N" class="s0" d="m117.7 19v-15h-2.2v11.7l-7.7-11.7h-2.6v15h2.2v-11.7l7.8 11.7z"/>
	<path class="s1" d="m16.8 19.8c0.5 0.8 1.5 1 2.2 0.4 1.5-1.3 2.6-2.9 3.3-4.7 0.9-2.4 0.9-4.9 0.2-7.3-0.7-2.4-2.2-4.5-4.2-6-2-1.5-4.5-2.2-7-2.2-2.5 0-4.9 0.9-6.9 2.4-2 1.6-3.4 3.7-4 6.2-0.7 2.4-0.5 4.9 0.5 7.3 0.7 1.7 1.9 3.3 3.4 4.5 0.7 0.6 1.7 0.3 2.2-0.5 0.5-0.8 0.2-1.8-0.5-2.4-0.9-0.8-1.6-1.8-2-2.9-0.7-1.7-0.8-3.5-0.4-5.2 0.5-1.7 1.5-3.2 2.9-4.3 1.4-1.1 3.1-1.7 4.9-1.7 1.7-0.1 3.5 0.5 4.9 1.5 1.4 1.1 2.5 2.6 3 4.3 0.5 1.6 0.4 3.5-0.2 5.1-0.4 1.1-1.1 2.2-1.9 3-0.7 0.6-0.9 1.7-0.4 2.5z"/>
	<path class="s2" d="m14.2 6.3c-0.8-0.5-1.8-0.3-2.2 0.6q-0.8 1.8-1 3.8c-0.1 1.9 0.2 3.8 1 5.5 0.8 1.7 2 3.2 3.5 4.4 1.4 1.1 3.2 1.9 5.1 2.2 1.8 0.4 3.7 0.2 5.5-0.4 1.8-0.6 3.5-1.6 4.8-3 1.3-1.4 2.2-3 2.7-4.9q0.5-1.9 0.4-3.9c-0.1-0.9-1-1.5-1.9-1.3-0.9 0.2-1.5 1.1-1.5 2.1q0 1.1-0.3 2.2c-0.3 1.3-1 2.5-1.9 3.5-0.9 1-2.1 1.7-3.3 2.1-1.3 0.4-2.6 0.5-4 0.3-1.3-0.2-2.5-0.8-3.6-1.6-1-0.8-1.9-1.9-2.4-3.1-0.6-1.2-0.8-2.5-0.7-3.9q0.1-1.1 0.5-2.2c0.3-0.9 0.1-1.9-0.7-2.4z"/>
	<path class="s3" d="m30.9 6.4c0.8-0.5 1-1.5 0.4-2.3q-1.3-1.5-3-2.5-1.8-1-3.7-1.4c-0.9-0.2-1.7 0.6-1.8 1.5 0 0.9 0.7 1.7 1.6 1.9q1.2 0.3 2.2 0.9 1 0.6 1.8 1.4c0.7 0.7 1.7 1 2.5 0.5z"/>
</svg>